<svg width="675" height="163" viewBox="0 0 675 163" fill="none" xmlns="http://www.w3.org/2000/svg">
<path d="M90.7158 8.74292H157.62C168.45 8.74292 177.229 17.8152 177.229 29.0064V107.676C177.229 118.867 168.45 127.939 157.62 127.939H61.8779L90.7158 8.74292Z" fill="black"/>
<path d="M73.338 31.3245H19.4426C8.70476 31.3245 0 40.3968 0 51.5879V130.258C0 141.449 8.70476 150.521 19.4426 150.521H85.7762L88.4362 139.432H47.406L73.338 31.3245Z" fill="black"/>
<path d="M257.568 127.892L228.072 31.3599H244.735L265.612 105.099L288.213 31.3599H303.918L326.519 105.099L347.204 31.3599H364.251L334.563 127.892H318.666L296.065 54.5351L273.465 127.892H257.568ZM437.73 65.0693C437.73 51.8537 428.345 43.4263 414.171 43.4263C400.956 43.4263 391.571 51.2791 390.23 64.3032L375.099 61.4302C377.972 42.2771 393.869 29.8276 414.171 29.8276C437.538 29.8276 453.818 43.6179 453.818 66.027V127.892H437.73V111.42C432.175 122.529 419.534 129.424 405.552 129.424C386.208 129.424 372.992 117.549 372.992 100.886C372.992 82.3071 388.123 72.156 418.96 69.0915L437.73 66.9846V65.0693ZM389.272 100.694C389.272 109.696 396.933 116.017 408.042 116.017C426.812 116.017 437.73 103.567 437.73 84.2224V79.6257L418.96 81.7325C399.423 83.8394 389.272 90.543 389.272 100.694ZM563.413 64.1117L547.133 67.1762C546.367 52.8113 537.365 44.5755 522.809 44.5755C504.996 44.5755 493.504 60.6641 493.504 86.5208V127.892H477.224V31.3599H493.504V50.3214C500.591 36.5312 512.466 29.8276 526.639 29.8276C548.091 29.8276 562.647 43.2348 563.413 64.1117ZM580.767 162.75V31.3599H597.047V45.3416C602.218 36.5312 614.859 29.8276 628.841 29.8276C658.529 29.8276 675 51.2791 675 79.6257C675 107.972 658.146 129.424 628.458 129.424C616.2 129.424 603.559 123.295 597.047 114.484V162.75H580.767ZM626.926 114.867C646.079 114.867 658.529 100.886 658.529 79.6257C658.529 58.3657 646.079 44.384 626.926 44.384C608.156 44.384 595.706 58.3657 595.706 79.6257C595.706 100.886 608.156 114.867 626.926 114.867Z" fill="black"/>
</svg>
